<?xml version="1.0" encoding="UTF-8" standalone="no"?>
<!DOCTYPE svg PUBLIC "-//W3C//DTD SVG 1.1//EN"
 "http://www.w3.org/Graphics/SVG/1.1/DTD/svg11.dtd">
<!-- Generated by graphviz version 2.43.0 (0)
 -->
<!-- Title: ProcurementSupplierERD Pages: 1 -->
<svg width="1119pt" height="387pt"
 viewBox="0.00 0.00 1119.00 387.00" xmlns="http://www.w3.org/2000/svg" xmlns:xlink="http://www.w3.org/1999/xlink">
<g id="graph0" class="graph" transform="scale(1 1) rotate(0) translate(4 383)">
<title>ProcurementSupplierERD</title>
<polygon fill="white" stroke="transparent" points="-4,4 -4,-383 1115,-383 1115,4 -4,4"/>
<text text-anchor="middle" x="555.5" y="-367" font-family="Times,serif" font-size="10.00">Procurement &amp; Supplier Risk Analytics Database &#45; ERD</text>
<!-- suppliers -->
<g id="node1" class="node">
<title>suppliers</title>
<polygon fill="none" stroke="black" points="0,-234 0,-352 180,-352 180,-234 0,-234"/>
<text text-anchor="middle" x="32" y="-290.5" font-family="Times,serif" font-size="10.00">suppliers</text>
<polyline fill="none" stroke="black" points="64,-234 64,-352 "/>
<text text-anchor="start" x="72" y="-340" font-family="Times,serif" font-size="10.00">PK supplier_id</text>
<text text-anchor="start" x="72" y="-329" font-family="Times,serif" font-size="10.00"> supplier_name</text>
<text text-anchor="start" x="72" y="-318" font-family="Times,serif" font-size="10.00"> supplier_country</text>
<text text-anchor="start" x="72" y="-307" font-family="Times,serif" font-size="10.00"> supplier_state</text>
<text text-anchor="start" x="72" y="-296" font-family="Times,serif" font-size="10.00"> supplier_city</text>
<text text-anchor="start" x="72" y="-285" font-family="Times,serif" font-size="10.00"> supplier_type</text>
<text text-anchor="start" x="72" y="-274" font-family="Times,serif" font-size="10.00"> is_active</text>
<text text-anchor="start" x="72" y="-263" font-family="Times,serif" font-size="10.00"> source_system</text>
<text text-anchor="start" x="72" y="-252" font-family="Times,serif" font-size="10.00"> source_supplier_id</text>
<text text-anchor="start" x="72" y="-241" font-family="Times,serif" font-size="10.00"> created_at</text>
</g>
<!-- purchase_orders -->
<g id="node4" class="node">
<title>purchase_orders</title>
<polygon fill="none" stroke="black" points="263.5,-82.5 263.5,-233.5 503.5,-233.5 503.5,-82.5 263.5,-82.5"/>
<text text-anchor="middle" x="314.5" y="-155.5" font-family="Times,serif" font-size="10.00">purchase_orders</text>
<polyline fill="none" stroke="black" points="365.5,-82.5 365.5,-233.5 "/>
<text text-anchor="start" x="373.5" y="-221.5" font-family="Times,serif" font-size="10.00">PK po_id</text>
<text text-anchor="start" x="373.5" y="-210.5" font-family="Times,serif" font-size="10.00"> po_number</text>
<text text-anchor="start" x="373.5" y="-199.5" font-family="Times,serif" font-size="10.00"> FK supplier_id</text>
<text text-anchor="start" x="373.5" y="-188.5" font-family="Times,serif" font-size="10.00"> FK buyer_id</text>
<text text-anchor="start" x="373.5" y="-177.5" font-family="Times,serif" font-size="10.00"> FK category_id</text>
<text text-anchor="start" x="373.5" y="-166.5" font-family="Times,serif" font-size="10.00"> po_date</text>
<text text-anchor="start" x="373.5" y="-155.5" font-family="Times,serif" font-size="10.00"> required_delivery_date</text>
<text text-anchor="start" x="373.5" y="-144.5" font-family="Times,serif" font-size="10.00"> po_status</text>
<text text-anchor="start" x="373.5" y="-133.5" font-family="Times,serif" font-size="10.00"> currency_code</text>
<text text-anchor="start" x="373.5" y="-122.5" font-family="Times,serif" font-size="10.00"> total_amount</text>
<text text-anchor="start" x="373.5" y="-111.5" font-family="Times,serif" font-size="10.00"> source_award_id</text>
<text text-anchor="start" x="373.5" y="-100.5" font-family="Times,serif" font-size="10.00"> source_system</text>
<text text-anchor="start" x="373.5" y="-89.5" font-family="Times,serif" font-size="10.00"> created_at</text>
</g>
<!-- suppliers&#45;&gt;purchase_orders -->
<g id="edge1" class="edge">
<title>suppliers&#45;&gt;purchase_orders</title>
<path fill="none" stroke="black" d="M180.04,-251.76C203.46,-240.92 229.18,-229.01 254.21,-217.42"/>
<polygon fill="black" stroke="black" points="255.79,-220.54 263.39,-213.16 252.85,-214.19 255.79,-220.54"/>
<text text-anchor="middle" x="221" y="-243.8" font-family="Times,serif" font-size="9.00">1 to many</text>
</g>
<!-- compliance_documents -->
<g id="node8" class="node">
<title>compliance_documents</title>
<polygon fill="none" stroke="black" points="262,-252.5 262,-359.5 505,-359.5 505,-252.5 262,-252.5"/>
<text text-anchor="middle" x="330" y="-303.5" font-family="Times,serif" font-size="10.00">compliance_documents</text>
<polyline fill="none" stroke="black" points="398,-252.5 398,-359.5 "/>
<text text-anchor="start" x="406" y="-347.5" font-family="Times,serif" font-size="10.00">PK document_id</text>
<text text-anchor="start" x="406" y="-336.5" font-family="Times,serif" font-size="10.00"> FK supplier_id</text>
<text text-anchor="start" x="406" y="-325.5" font-family="Times,serif" font-size="10.00"> document_type</text>
<text text-anchor="start" x="406" y="-314.5" font-family="Times,serif" font-size="10.00"> document_status</text>
<text text-anchor="start" x="406" y="-303.5" font-family="Times,serif" font-size="10.00"> issue_date</text>
<text text-anchor="start" x="406" y="-292.5" font-family="Times,serif" font-size="10.00"> expiration_date</text>
<text text-anchor="start" x="406" y="-281.5" font-family="Times,serif" font-size="10.00"> reviewed_date</text>
<text text-anchor="start" x="406" y="-270.5" font-family="Times,serif" font-size="10.00"> reviewed_by</text>
<text text-anchor="start" x="406" y="-259.5" font-family="Times,serif" font-size="10.00"> created_at</text>
</g>
<!-- suppliers&#45;&gt;compliance_documents -->
<g id="edge8" class="edge">
<title>suppliers&#45;&gt;compliance_documents</title>
<path fill="none" stroke="black" d="M180.04,-296.97C202.71,-297.98 227.53,-299.09 251.8,-300.17"/>
<polygon fill="black" stroke="black" points="251.65,-303.67 261.79,-300.62 251.96,-296.67 251.65,-303.67"/>
<text text-anchor="middle" x="221" y="-301.8" font-family="Times,serif" font-size="9.00">1 to many</text>
</g>
<!-- buyers -->
<g id="node2" class="node">
<title>buyers</title>
<polygon fill="none" stroke="black" points="6.5,-115.5 6.5,-200.5 173.5,-200.5 173.5,-115.5 6.5,-115.5"/>
<text text-anchor="middle" x="32.5" y="-155.5" font-family="Times,serif" font-size="10.00">buyers</text>
<polyline fill="none" stroke="black" points="58.5,-115.5 58.5,-200.5 "/>
<text text-anchor="start" x="66.5" y="-188.5" font-family="Times,serif" font-size="10.00">PK buyer_id</text>
<text text-anchor="start" x="66.5" y="-177.5" font-family="Times,serif" font-size="10.00"> buyer_name</text>
<text text-anchor="start" x="66.5" y="-166.5" font-family="Times,serif" font-size="10.00"> buyer_department</text>
<text text-anchor="start" x="66.5" y="-155.5" font-family="Times,serif" font-size="10.00"> buyer_region</text>
<text text-anchor="start" x="66.5" y="-144.5" font-family="Times,serif" font-size="10.00"> source_system</text>
<text text-anchor="start" x="66.5" y="-133.5" font-family="Times,serif" font-size="10.00"> source_buyer_id</text>
<text text-anchor="start" x="66.5" y="-122.5" font-family="Times,serif" font-size="10.00"> created_at</text>
</g>
<!-- buyers&#45;&gt;purchase_orders -->
<g id="edge2" class="edge">
<title>buyers&#45;&gt;purchase_orders</title>
<path fill="none" stroke="black" d="M173.75,-158C198.45,-158 226.14,-158 253.08,-158"/>
<polygon fill="black" stroke="black" points="253.36,-161.5 263.36,-158 253.36,-154.5 253.36,-161.5"/>
<text text-anchor="middle" x="221" y="-160.8" font-family="Times,serif" font-size="9.00">1 to many</text>
</g>
<!-- categories -->
<g id="node3" class="node">
<title>categories</title>
<polygon fill="none" stroke="black" points="5.5,-20 5.5,-94 174.5,-94 174.5,-20 5.5,-20"/>
<text text-anchor="middle" x="40" y="-54.5" font-family="Times,serif" font-size="10.00">categories</text>
<polyline fill="none" stroke="black" points="74.5,-20 74.5,-94 "/>
<text text-anchor="start" x="82.5" y="-82" font-family="Times,serif" font-size="10.00">PK category_id</text>
<text text-anchor="start" x="82.5" y="-71" font-family="Times,serif" font-size="10.00"> category_code</text>
<text text-anchor="start" x="82.5" y="-60" font-family="Times,serif" font-size="10.00"> category_name</text>
<text text-anchor="start" x="82.5" y="-49" font-family="Times,serif" font-size="10.00"> category_group</text>
<text text-anchor="start" x="82.5" y="-38" font-family="Times,serif" font-size="10.00"> source_system</text>
<text text-anchor="start" x="82.5" y="-27" font-family="Times,serif" font-size="10.00"> created_at</text>
</g>
<!-- categories&#45;&gt;purchase_orders -->
<g id="edge3" class="edge">
<title>categories&#45;&gt;purchase_orders</title>
<path fill="none" stroke="black" d="M174.53,-85.94C199.29,-94.52 226.99,-104.12 253.91,-113.44"/>
<polygon fill="black" stroke="black" points="252.79,-116.76 263.39,-116.73 255.08,-110.15 252.79,-116.76"/>
<text text-anchor="middle" x="221" y="-110.8" font-family="Times,serif" font-size="9.00">1 to many</text>
</g>
<!-- purchase_order_lines -->
<g id="node5" class="node">
<title>purchase_order_lines</title>
<polygon fill="none" stroke="black" points="587,-0.5 587,-107.5 817,-107.5 817,-0.5 587,-0.5"/>
<text text-anchor="middle" x="650" y="-51.5" font-family="Times,serif" font-size="10.00">purchase_order_lines</text>
<polyline fill="none" stroke="black" points="713,-0.5 713,-107.5 "/>
<text text-anchor="start" x="721" y="-95.5" font-family="Times,serif" font-size="10.00">PK po_line_id</text>
<text text-anchor="start" x="721" y="-84.5" font-family="Times,serif" font-size="10.00"> FK po_id</text>
<text text-anchor="start" x="721" y="-73.5" font-family="Times,serif" font-size="10.00"> line_number</text>
<text text-anchor="start" x="721" y="-62.5" font-family="Times,serif" font-size="10.00"> item_description</text>
<text text-anchor="start" x="721" y="-51.5" font-family="Times,serif" font-size="10.00"> FK category_id</text>
<text text-anchor="start" x="721" y="-40.5" font-family="Times,serif" font-size="10.00"> quantity</text>
<text text-anchor="start" x="721" y="-29.5" font-family="Times,serif" font-size="10.00"> unit_price</text>
<text text-anchor="start" x="721" y="-18.5" font-family="Times,serif" font-size="10.00"> line_amount</text>
<text text-anchor="start" x="721" y="-7.5" font-family="Times,serif" font-size="10.00"> created_at</text>
</g>
<!-- categories&#45;&gt;purchase_order_lines -->
<g id="edge4" class="edge">
<title>categories&#45;&gt;purchase_order_lines</title>
<path fill="none" stroke="black" d="M174.54,-56.59C278.37,-56.08 456.51,-55.2 576.47,-54.61"/>
<polygon fill="black" stroke="black" points="576.83,-58.11 586.81,-54.56 576.79,-51.11 576.83,-58.11"/>
<text text-anchor="middle" x="383.5" y="-59.8" font-family="Times,serif" font-size="9.00">1 to many</text>
</g>
<!-- purchase_orders&#45;&gt;purchase_order_lines -->
<g id="edge5" class="edge">
<title>purchase_orders&#45;&gt;purchase_order_lines</title>
<path fill="none" stroke="black" d="M503.7,-118.83C527.76,-110.93 553.1,-102.6 577.3,-94.65"/>
<polygon fill="black" stroke="black" points="578.47,-97.95 586.88,-91.5 576.28,-91.3 578.47,-97.95"/>
<text text-anchor="middle" x="546" y="-115.8" font-family="Times,serif" font-size="9.00">1 to many</text>
</g>
<!-- invoices -->
<g id="node7" class="node">
<title>invoices</title>
<polygon fill="none" stroke="black" points="622.5,-127 622.5,-245 781.5,-245 781.5,-127 622.5,-127"/>
<text text-anchor="middle" x="651.5" y="-183.5" font-family="Times,serif" font-size="10.00">invoices</text>
<polyline fill="none" stroke="black" points="680.5,-127 680.5,-245 "/>
<text text-anchor="start" x="688.5" y="-233" font-family="Times,serif" font-size="10.00">PK invoice_id</text>
<text text-anchor="start" x="688.5" y="-222" font-family="Times,serif" font-size="10.00"> invoice_number</text>
<text text-anchor="start" x="688.5" y="-211" font-family="Times,serif" font-size="10.00"> FK po_id</text>
<text text-anchor="start" x="688.5" y="-200" font-family="Times,serif" font-size="10.00"> invoice_date</text>
<text text-anchor="start" x="688.5" y="-189" font-family="Times,serif" font-size="10.00"> due_date</text>
<text text-anchor="start" x="688.5" y="-178" font-family="Times,serif" font-size="10.00"> payment_date</text>
<text text-anchor="start" x="688.5" y="-167" font-family="Times,serif" font-size="10.00"> invoice_status</text>
<text text-anchor="start" x="688.5" y="-156" font-family="Times,serif" font-size="10.00"> invoice_amount</text>
<text text-anchor="start" x="688.5" y="-145" font-family="Times,serif" font-size="10.00"> currency_code</text>
<text text-anchor="start" x="688.5" y="-134" font-family="Times,serif" font-size="10.00"> created_at</text>
</g>
<!-- purchase_orders&#45;&gt;invoices -->
<g id="edge7" class="edge">
<title>purchase_orders&#45;&gt;invoices</title>
<path fill="none" stroke="black" d="M503.7,-168.55C539.59,-171.72 578.34,-175.15 611.92,-178.12"/>
<polygon fill="black" stroke="black" points="611.89,-181.63 622.16,-179.03 612.51,-174.66 611.89,-181.63"/>
<text text-anchor="middle" x="546" y="-176.8" font-family="Times,serif" font-size="9.00">1 to many</text>
</g>
<!-- deliveries -->
<g id="node6" class="node">
<title>deliveries</title>
<polygon fill="none" stroke="black" points="899,-6 899,-102 1111,-102 1111,-6 899,-6"/>
<text text-anchor="middle" x="932" y="-51.5" font-family="Times,serif" font-size="10.00">deliveries</text>
<polyline fill="none" stroke="black" points="965,-6 965,-102 "/>
<text text-anchor="start" x="973" y="-90" font-family="Times,serif" font-size="10.00">PK delivery_id</text>
<text text-anchor="start" x="973" y="-79" font-family="Times,serif" font-size="10.00"> FK po_line_id</text>
<text text-anchor="start" x="973" y="-68" font-family="Times,serif" font-size="10.00"> scheduled_delivery_date</text>
<text text-anchor="start" x="973" y="-57" font-family="Times,serif" font-size="10.00"> actual_delivery_date</text>
<text text-anchor="start" x="973" y="-46" font-family="Times,serif" font-size="10.00"> delivery_status</text>
<text text-anchor="start" x="973" y="-35" font-family="Times,serif" font-size="10.00"> delivered_quantity</text>
<text text-anchor="start" x="973" y="-24" font-family="Times,serif" font-size="10.00"> delay_days</text>
<text text-anchor="start" x="973" y="-13" font-family="Times,serif" font-size="10.00"> created_at</text>
</g>
<!-- purchase_order_lines&#45;&gt;deliveries -->
<g id="edge6" class="edge">
<title>purchase_order_lines&#45;&gt;deliveries</title>
<path fill="none" stroke="black" d="M817.22,-54C840.55,-54 865.11,-54 888.48,-54"/>
<polygon fill="black" stroke="black" points="888.77,-57.5 898.77,-54 888.77,-50.5 888.77,-57.5"/>
<text text-anchor="middle" x="858" y="-56.8" font-family="Times,serif" font-size="9.00">1 to many</text>
</g>
</g>
</svg>
